<mxfile host="app.diagrams.net" modified="2022-09-25T05:56:32.722Z" agent="5.0 (X11; Linux x86_64) AppleWebKit/537.36 (KHTML, like Gecko) Chrome/105.0.0.0 Safari/537.36" etag="GDbYt_KFqSkf-QdMB6FB" version="20.3.6" type="github" pages="2">
  <diagram id="Ipd4QvrBGF5LbPj32byA" name="Page-1">
    <mxGraphModel dx="1247" dy="796" grid="1" gridSize="10" guides="1" tooltips="1" connect="1" arrows="1" fold="1" page="1" pageScale="1" pageWidth="1100" pageHeight="1700" math="0" shadow="0">
      <root>
        <mxCell id="0" />
        <mxCell id="1" parent="0" />
        <mxCell id="gzbDuHDzkHGoBa_xYCs--32" value="" style="edgeStyle=orthogonalEdgeStyle;rounded=0;orthogonalLoop=1;jettySize=auto;html=1;" edge="1" parent="1" source="gzbDuHDzkHGoBa_xYCs--1" target="gzbDuHDzkHGoBa_xYCs--2">
          <mxGeometry relative="1" as="geometry" />
        </mxCell>
        <mxCell id="gzbDuHDzkHGoBa_xYCs--1" value="Initialize Particle Position with Random Values" style="rounded=1;whiteSpace=wrap;html=1;absoluteArcSize=1;arcSize=14;strokeWidth=2;fillColor=#fff2cc;strokeColor=#d6b656;" vertex="1" parent="1">
          <mxGeometry x="160" y="90" width="150" height="60" as="geometry" />
        </mxCell>
        <mxCell id="gzbDuHDzkHGoBa_xYCs--30" value="" style="edgeStyle=orthogonalEdgeStyle;rounded=0;orthogonalLoop=1;jettySize=auto;html=1;" edge="1" parent="1" source="gzbDuHDzkHGoBa_xYCs--2" target="gzbDuHDzkHGoBa_xYCs--3">
          <mxGeometry relative="1" as="geometry" />
        </mxCell>
        <mxCell id="gzbDuHDzkHGoBa_xYCs--2" value="Start optimisation loop" style="rounded=1;whiteSpace=wrap;html=1;absoluteArcSize=1;arcSize=14;strokeWidth=2;" vertex="1" parent="1">
          <mxGeometry x="160" y="190" width="150" height="50" as="geometry" />
        </mxCell>
        <mxCell id="gzbDuHDzkHGoBa_xYCs--31" value="" style="edgeStyle=orthogonalEdgeStyle;rounded=0;orthogonalLoop=1;jettySize=auto;html=1;" edge="1" parent="1" source="gzbDuHDzkHGoBa_xYCs--3" target="gzbDuHDzkHGoBa_xYCs--7">
          <mxGeometry relative="1" as="geometry" />
        </mxCell>
        <mxCell id="gzbDuHDzkHGoBa_xYCs--34" style="edgeStyle=orthogonalEdgeStyle;rounded=0;orthogonalLoop=1;jettySize=auto;html=1;entryX=0;entryY=0.5;entryDx=0;entryDy=0;" edge="1" parent="1" source="gzbDuHDzkHGoBa_xYCs--3" target="gzbDuHDzkHGoBa_xYCs--4">
          <mxGeometry relative="1" as="geometry">
            <Array as="points">
              <mxPoint x="30" y="320" />
              <mxPoint x="30" y="1005" />
            </Array>
          </mxGeometry>
        </mxCell>
        <mxCell id="gzbDuHDzkHGoBa_xYCs--3" value="Is Iteration &lt;br&gt;&amp;gt; Max Interations" style="strokeWidth=2;html=1;shape=mxgraph.flowchart.decision;whiteSpace=wrap;fillColor=#fff2cc;strokeColor=#d6b656;" vertex="1" parent="1">
          <mxGeometry x="142.5" y="270" width="185" height="100" as="geometry" />
        </mxCell>
        <mxCell id="gzbDuHDzkHGoBa_xYCs--4" value="Exit program" style="rounded=1;whiteSpace=wrap;html=1;absoluteArcSize=1;arcSize=14;strokeWidth=2;" vertex="1" parent="1">
          <mxGeometry x="160" y="980" width="150" height="50" as="geometry" />
        </mxCell>
        <mxCell id="gzbDuHDzkHGoBa_xYCs--11" value="" style="edgeStyle=orthogonalEdgeStyle;rounded=0;orthogonalLoop=1;jettySize=auto;html=1;" edge="1" parent="1" source="gzbDuHDzkHGoBa_xYCs--5" target="gzbDuHDzkHGoBa_xYCs--6">
          <mxGeometry relative="1" as="geometry" />
        </mxCell>
        <mxCell id="gzbDuHDzkHGoBa_xYCs--5" value="Compute current particle objective" style="rounded=1;whiteSpace=wrap;html=1;absoluteArcSize=1;arcSize=14;strokeWidth=2;fillColor=#fff2cc;strokeColor=#d6b656;" vertex="1" parent="1">
          <mxGeometry x="160" y="530" width="150" height="50" as="geometry" />
        </mxCell>
        <mxCell id="gzbDuHDzkHGoBa_xYCs--12" value="" style="edgeStyle=orthogonalEdgeStyle;rounded=0;orthogonalLoop=1;jettySize=auto;html=1;" edge="1" parent="1" source="gzbDuHDzkHGoBa_xYCs--6" target="gzbDuHDzkHGoBa_xYCs--8">
          <mxGeometry relative="1" as="geometry" />
        </mxCell>
        <mxCell id="gzbDuHDzkHGoBa_xYCs--6" value="Find overall best objective up till now" style="rounded=1;whiteSpace=wrap;html=1;absoluteArcSize=1;arcSize=14;strokeWidth=2;" vertex="1" parent="1">
          <mxGeometry x="160" y="610" width="150" height="50" as="geometry" />
        </mxCell>
        <mxCell id="gzbDuHDzkHGoBa_xYCs--10" value="" style="edgeStyle=orthogonalEdgeStyle;rounded=0;orthogonalLoop=1;jettySize=auto;html=1;" edge="1" parent="1" source="gzbDuHDzkHGoBa_xYCs--7" target="gzbDuHDzkHGoBa_xYCs--5">
          <mxGeometry relative="1" as="geometry" />
        </mxCell>
        <mxCell id="gzbDuHDzkHGoBa_xYCs--14" style="edgeStyle=orthogonalEdgeStyle;rounded=0;orthogonalLoop=1;jettySize=auto;html=1;entryX=1;entryY=0.5;entryDx=0;entryDy=0;" edge="1" parent="1" source="gzbDuHDzkHGoBa_xYCs--7" target="gzbDuHDzkHGoBa_xYCs--13">
          <mxGeometry relative="1" as="geometry">
            <Array as="points">
              <mxPoint x="390" y="450" />
              <mxPoint x="390" y="805" />
            </Array>
          </mxGeometry>
        </mxCell>
        <mxCell id="gzbDuHDzkHGoBa_xYCs--7" value="Current particle &amp;gt;&lt;br&gt;Total particles" style="strokeWidth=2;html=1;shape=mxgraph.flowchart.decision;whiteSpace=wrap;" vertex="1" parent="1">
          <mxGeometry x="142.5" y="400" width="185" height="100" as="geometry" />
        </mxCell>
        <mxCell id="gzbDuHDzkHGoBa_xYCs--9" style="edgeStyle=orthogonalEdgeStyle;rounded=0;orthogonalLoop=1;jettySize=auto;html=1;entryX=0;entryY=0.5;entryDx=0;entryDy=0;entryPerimeter=0;" edge="1" parent="1" source="gzbDuHDzkHGoBa_xYCs--8" target="gzbDuHDzkHGoBa_xYCs--7">
          <mxGeometry relative="1" as="geometry">
            <mxPoint x="70" y="440" as="targetPoint" />
            <Array as="points">
              <mxPoint x="90" y="720" />
              <mxPoint x="90" y="450" />
            </Array>
          </mxGeometry>
        </mxCell>
        <mxCell id="gzbDuHDzkHGoBa_xYCs--8" value="Goto next particle" style="rounded=1;whiteSpace=wrap;html=1;absoluteArcSize=1;arcSize=14;strokeWidth=2;" vertex="1" parent="1">
          <mxGeometry x="160" y="700" width="150" height="50" as="geometry" />
        </mxCell>
        <mxCell id="gzbDuHDzkHGoBa_xYCs--18" value="" style="edgeStyle=orthogonalEdgeStyle;rounded=0;orthogonalLoop=1;jettySize=auto;html=1;" edge="1" parent="1" source="gzbDuHDzkHGoBa_xYCs--13" target="gzbDuHDzkHGoBa_xYCs--17">
          <mxGeometry relative="1" as="geometry" />
        </mxCell>
        <mxCell id="gzbDuHDzkHGoBa_xYCs--13" value="Store current minima obtained from overall best objective" style="rounded=1;whiteSpace=wrap;html=1;absoluteArcSize=1;arcSize=14;strokeWidth=2;" vertex="1" parent="1">
          <mxGeometry x="160" y="780" width="150" height="50" as="geometry" />
        </mxCell>
        <mxCell id="gzbDuHDzkHGoBa_xYCs--17" value="Update personal best objective for all particles" style="rounded=1;whiteSpace=wrap;html=1;absoluteArcSize=1;arcSize=14;strokeWidth=2;" vertex="1" parent="1">
          <mxGeometry x="160" y="870" width="150" height="50" as="geometry" />
        </mxCell>
        <mxCell id="gzbDuHDzkHGoBa_xYCs--23" style="edgeStyle=orthogonalEdgeStyle;rounded=0;orthogonalLoop=1;jettySize=auto;html=1;entryX=0.5;entryY=1;entryDx=0;entryDy=0;exitX=0.5;exitY=0;exitDx=0;exitDy=0;exitPerimeter=0;" edge="1" parent="1" source="gzbDuHDzkHGoBa_xYCs--19" target="gzbDuHDzkHGoBa_xYCs--17">
          <mxGeometry relative="1" as="geometry" />
        </mxCell>
        <mxCell id="gzbDuHDzkHGoBa_xYCs--25" value="" style="edgeStyle=orthogonalEdgeStyle;rounded=0;orthogonalLoop=1;jettySize=auto;html=1;" edge="1" parent="1" source="gzbDuHDzkHGoBa_xYCs--19" target="gzbDuHDzkHGoBa_xYCs--20">
          <mxGeometry relative="1" as="geometry" />
        </mxCell>
        <mxCell id="gzbDuHDzkHGoBa_xYCs--36" style="edgeStyle=orthogonalEdgeStyle;rounded=0;orthogonalLoop=1;jettySize=auto;html=1;entryX=1;entryY=0.5;entryDx=0;entryDy=0;" edge="1" parent="1" source="gzbDuHDzkHGoBa_xYCs--19" target="gzbDuHDzkHGoBa_xYCs--29">
          <mxGeometry relative="1" as="geometry">
            <Array as="points">
              <mxPoint x="890" y="120" />
              <mxPoint x="890" y="525" />
            </Array>
          </mxGeometry>
        </mxCell>
        <mxCell id="gzbDuHDzkHGoBa_xYCs--19" value="Current particle &amp;gt;&lt;br&gt;Total particles" style="strokeWidth=2;html=1;shape=mxgraph.flowchart.decision;whiteSpace=wrap;" vertex="1" parent="1">
          <mxGeometry x="680" y="70" width="185" height="100" as="geometry" />
        </mxCell>
        <mxCell id="gzbDuHDzkHGoBa_xYCs--26" value="" style="edgeStyle=orthogonalEdgeStyle;rounded=0;orthogonalLoop=1;jettySize=auto;html=1;" edge="1" parent="1" source="gzbDuHDzkHGoBa_xYCs--20" target="gzbDuHDzkHGoBa_xYCs--21">
          <mxGeometry relative="1" as="geometry" />
        </mxCell>
        <mxCell id="gzbDuHDzkHGoBa_xYCs--20" value="Update particle velocity and move particle" style="rounded=1;whiteSpace=wrap;html=1;absoluteArcSize=1;arcSize=14;strokeWidth=2;" vertex="1" parent="1">
          <mxGeometry x="697.5" y="230" width="150" height="50" as="geometry" />
        </mxCell>
        <mxCell id="gzbDuHDzkHGoBa_xYCs--27" value="" style="edgeStyle=orthogonalEdgeStyle;rounded=0;orthogonalLoop=1;jettySize=auto;html=1;" edge="1" parent="1" source="gzbDuHDzkHGoBa_xYCs--21" target="gzbDuHDzkHGoBa_xYCs--22">
          <mxGeometry relative="1" as="geometry" />
        </mxCell>
        <mxCell id="gzbDuHDzkHGoBa_xYCs--21" value="If particle goes outside optimisation region, put it back in" style="rounded=1;whiteSpace=wrap;html=1;absoluteArcSize=1;arcSize=14;strokeWidth=2;fillColor=#fff2cc;strokeColor=#d6b656;" vertex="1" parent="1">
          <mxGeometry x="697.5" y="320" width="150" height="50" as="geometry" />
        </mxCell>
        <mxCell id="gzbDuHDzkHGoBa_xYCs--28" style="edgeStyle=orthogonalEdgeStyle;rounded=0;orthogonalLoop=1;jettySize=auto;html=1;entryX=0;entryY=0.5;entryDx=0;entryDy=0;entryPerimeter=0;" edge="1" parent="1" source="gzbDuHDzkHGoBa_xYCs--22" target="gzbDuHDzkHGoBa_xYCs--19">
          <mxGeometry relative="1" as="geometry">
            <Array as="points">
              <mxPoint x="630" y="440" />
              <mxPoint x="630" y="120" />
            </Array>
          </mxGeometry>
        </mxCell>
        <mxCell id="gzbDuHDzkHGoBa_xYCs--22" value="Goto next particle" style="rounded=1;whiteSpace=wrap;html=1;absoluteArcSize=1;arcSize=14;strokeWidth=2;" vertex="1" parent="1">
          <mxGeometry x="697.5" y="415" width="150" height="50" as="geometry" />
        </mxCell>
        <mxCell id="gzbDuHDzkHGoBa_xYCs--37" style="edgeStyle=orthogonalEdgeStyle;rounded=0;orthogonalLoop=1;jettySize=auto;html=1;entryX=1;entryY=0.5;entryDx=0;entryDy=0;entryPerimeter=0;" edge="1" parent="1" source="gzbDuHDzkHGoBa_xYCs--29" target="gzbDuHDzkHGoBa_xYCs--3">
          <mxGeometry relative="1" as="geometry" />
        </mxCell>
        <mxCell id="gzbDuHDzkHGoBa_xYCs--29" value="Goto next optimisation step" style="rounded=1;whiteSpace=wrap;html=1;absoluteArcSize=1;arcSize=14;strokeWidth=2;" vertex="1" parent="1">
          <mxGeometry x="697.5" y="500" width="150" height="50" as="geometry" />
        </mxCell>
        <mxCell id="gzbDuHDzkHGoBa_xYCs--46" value="" style="edgeStyle=orthogonalEdgeStyle;rounded=0;orthogonalLoop=1;jettySize=auto;html=1;" edge="1" parent="1" source="gzbDuHDzkHGoBa_xYCs--39" target="gzbDuHDzkHGoBa_xYCs--40">
          <mxGeometry relative="1" as="geometry" />
        </mxCell>
        <mxCell id="gzbDuHDzkHGoBa_xYCs--39" value="Define Net list" style="rounded=1;whiteSpace=wrap;html=1;absoluteArcSize=1;arcSize=14;strokeWidth=2;fillColor=#d5e8d4;strokeColor=#82b366;" vertex="1" parent="1">
          <mxGeometry x="697.5" y="620" width="150" height="50" as="geometry" />
        </mxCell>
        <mxCell id="gzbDuHDzkHGoBa_xYCs--47" value="" style="edgeStyle=orthogonalEdgeStyle;rounded=0;orthogonalLoop=1;jettySize=auto;html=1;" edge="1" parent="1" source="gzbDuHDzkHGoBa_xYCs--40" target="gzbDuHDzkHGoBa_xYCs--41">
          <mxGeometry relative="1" as="geometry" />
        </mxCell>
        <mxCell id="gzbDuHDzkHGoBa_xYCs--40" value="&lt;div&gt;let start_r = 1k&lt;/div&gt;&lt;div&gt;let stop_r = 10k&lt;/div&gt;&lt;div&gt;let delta_r = 1k&lt;/div&gt;" style="rounded=1;whiteSpace=wrap;html=1;absoluteArcSize=1;arcSize=14;strokeWidth=2;fillColor=#fff2cc;strokeColor=#d6b656;" vertex="1" parent="1">
          <mxGeometry x="697.5" y="720" width="150" height="50" as="geometry" />
        </mxCell>
        <mxCell id="gzbDuHDzkHGoBa_xYCs--48" value="" style="edgeStyle=orthogonalEdgeStyle;rounded=0;orthogonalLoop=1;jettySize=auto;html=1;" edge="1" parent="1" source="gzbDuHDzkHGoBa_xYCs--41" target="gzbDuHDzkHGoBa_xYCs--42">
          <mxGeometry relative="1" as="geometry" />
        </mxCell>
        <mxCell id="gzbDuHDzkHGoBa_xYCs--41" value="Start Parameter Sweep" style="rounded=1;whiteSpace=wrap;html=1;absoluteArcSize=1;arcSize=14;strokeWidth=2;" vertex="1" parent="1">
          <mxGeometry x="697.5" y="820" width="150" height="50" as="geometry" />
        </mxCell>
        <mxCell id="gzbDuHDzkHGoBa_xYCs--49" value="" style="edgeStyle=orthogonalEdgeStyle;rounded=0;orthogonalLoop=1;jettySize=auto;html=1;" edge="1" parent="1" source="gzbDuHDzkHGoBa_xYCs--42" target="gzbDuHDzkHGoBa_xYCs--43">
          <mxGeometry relative="1" as="geometry" />
        </mxCell>
        <mxCell id="gzbDuHDzkHGoBa_xYCs--52" style="edgeStyle=orthogonalEdgeStyle;rounded=0;orthogonalLoop=1;jettySize=auto;html=1;entryX=1;entryY=0.5;entryDx=0;entryDy=0;" edge="1" parent="1" source="gzbDuHDzkHGoBa_xYCs--42" target="gzbDuHDzkHGoBa_xYCs--51">
          <mxGeometry relative="1" as="geometry">
            <Array as="points">
              <mxPoint x="940" y="960" />
              <mxPoint x="940" y="1315" />
            </Array>
          </mxGeometry>
        </mxCell>
        <mxCell id="gzbDuHDzkHGoBa_xYCs--42" value="r_act &amp;lt;= stop_r" style="strokeWidth=2;html=1;shape=mxgraph.flowchart.decision;whiteSpace=wrap;fillColor=#fff2cc;strokeColor=#d6b656;" vertex="1" parent="1">
          <mxGeometry x="680" y="910" width="185" height="100" as="geometry" />
        </mxCell>
        <mxCell id="gzbDuHDzkHGoBa_xYCs--54" value="" style="edgeStyle=orthogonalEdgeStyle;rounded=0;orthogonalLoop=1;jettySize=auto;html=1;" edge="1" parent="1" source="gzbDuHDzkHGoBa_xYCs--43" target="gzbDuHDzkHGoBa_xYCs--53">
          <mxGeometry relative="1" as="geometry" />
        </mxCell>
        <mxCell id="gzbDuHDzkHGoBa_xYCs--43" value="&lt;div&gt;alter r1 r_act&lt;/div&gt;&lt;div&gt;&amp;nbsp; &amp;nbsp; op&lt;/div&gt;" style="rounded=1;whiteSpace=wrap;html=1;absoluteArcSize=1;arcSize=14;strokeWidth=2;" vertex="1" parent="1">
          <mxGeometry x="657.5" y="1060" width="230" height="40" as="geometry" />
        </mxCell>
        <mxCell id="gzbDuHDzkHGoBa_xYCs--45" style="edgeStyle=orthogonalEdgeStyle;rounded=0;orthogonalLoop=1;jettySize=auto;html=1;entryX=0;entryY=0.5;entryDx=0;entryDy=0;entryPerimeter=0;exitX=0;exitY=0.5;exitDx=0;exitDy=0;" edge="1" parent="1" source="gzbDuHDzkHGoBa_xYCs--44" target="gzbDuHDzkHGoBa_xYCs--42">
          <mxGeometry relative="1" as="geometry">
            <Array as="points">
              <mxPoint x="610" y="1225" />
              <mxPoint x="610" y="960" />
            </Array>
          </mxGeometry>
        </mxCell>
        <mxCell id="gzbDuHDzkHGoBa_xYCs--44" value="let r_act = r_act + delta_r" style="rounded=1;whiteSpace=wrap;html=1;absoluteArcSize=1;arcSize=14;strokeWidth=2;fillColor=#fff2cc;strokeColor=#d6b656;" vertex="1" parent="1">
          <mxGeometry x="697.5" y="1200" width="150" height="50" as="geometry" />
        </mxCell>
        <mxCell id="gzbDuHDzkHGoBa_xYCs--51" value="Exit program" style="rounded=1;whiteSpace=wrap;html=1;absoluteArcSize=1;arcSize=14;strokeWidth=2;" vertex="1" parent="1">
          <mxGeometry x="700" y="1290" width="150" height="50" as="geometry" />
        </mxCell>
        <mxCell id="gzbDuHDzkHGoBa_xYCs--55" value="" style="edgeStyle=orthogonalEdgeStyle;rounded=0;orthogonalLoop=1;jettySize=auto;html=1;" edge="1" parent="1" source="gzbDuHDzkHGoBa_xYCs--53" target="gzbDuHDzkHGoBa_xYCs--44">
          <mxGeometry relative="1" as="geometry" />
        </mxCell>
        <mxCell id="gzbDuHDzkHGoBa_xYCs--53" value="&lt;div&gt;&lt;span style=&quot;background-color: initial;&quot;&gt;print -v(2)*i(vdd) &amp;gt;&amp;gt; text&lt;/span&gt;&lt;br&gt;&lt;/div&gt;" style="rounded=1;whiteSpace=wrap;html=1;absoluteArcSize=1;arcSize=14;strokeWidth=2;fillColor=#fff2cc;strokeColor=#d6b656;" vertex="1" parent="1">
          <mxGeometry x="657.5" y="1130" width="230" height="40" as="geometry" />
        </mxCell>
      </root>
    </mxGraphModel>
  </diagram>
  <diagram id="iyLCFcFai74-8zx5C2eE" name="Page-2">
    <mxGraphModel dx="1247" dy="796" grid="1" gridSize="10" guides="1" tooltips="1" connect="1" arrows="1" fold="1" page="1" pageScale="1" pageWidth="1100" pageHeight="1700" math="0" shadow="0">
      <root>
        <mxCell id="0" />
        <mxCell id="1" parent="0" />
        <mxCell id="ZSEWPMTrWoGSLr4TfbLz-1" value="" style="edgeStyle=orthogonalEdgeStyle;rounded=0;orthogonalLoop=1;jettySize=auto;html=1;" edge="1" parent="1" source="ZSEWPMTrWoGSLr4TfbLz-2" target="ZSEWPMTrWoGSLr4TfbLz-4">
          <mxGeometry relative="1" as="geometry" />
        </mxCell>
        <mxCell id="ZSEWPMTrWoGSLr4TfbLz-2" value="Initialize element in netlist with Random Values" style="rounded=1;whiteSpace=wrap;html=1;absoluteArcSize=1;arcSize=14;strokeWidth=2;fillColor=#d5e8d4;strokeColor=#82b366;" vertex="1" parent="1">
          <mxGeometry x="160" y="90" width="150" height="60" as="geometry" />
        </mxCell>
        <mxCell id="ZSEWPMTrWoGSLr4TfbLz-3" value="" style="edgeStyle=orthogonalEdgeStyle;rounded=0;orthogonalLoop=1;jettySize=auto;html=1;" edge="1" parent="1" source="ZSEWPMTrWoGSLr4TfbLz-4" target="ZSEWPMTrWoGSLr4TfbLz-7">
          <mxGeometry relative="1" as="geometry" />
        </mxCell>
        <mxCell id="ZSEWPMTrWoGSLr4TfbLz-4" value="Start optimisation loop" style="rounded=1;whiteSpace=wrap;html=1;absoluteArcSize=1;arcSize=14;strokeWidth=2;fillColor=#d5e8d4;strokeColor=#82b366;" vertex="1" parent="1">
          <mxGeometry x="160" y="190" width="150" height="50" as="geometry" />
        </mxCell>
        <mxCell id="ZSEWPMTrWoGSLr4TfbLz-5" value="" style="edgeStyle=orthogonalEdgeStyle;rounded=0;orthogonalLoop=1;jettySize=auto;html=1;" edge="1" parent="1" source="ZSEWPMTrWoGSLr4TfbLz-7" target="ZSEWPMTrWoGSLr4TfbLz-15">
          <mxGeometry relative="1" as="geometry" />
        </mxCell>
        <mxCell id="ZSEWPMTrWoGSLr4TfbLz-6" style="edgeStyle=orthogonalEdgeStyle;rounded=0;orthogonalLoop=1;jettySize=auto;html=1;entryX=0;entryY=0.5;entryDx=0;entryDy=0;" edge="1" parent="1" source="ZSEWPMTrWoGSLr4TfbLz-7" target="ZSEWPMTrWoGSLr4TfbLz-8">
          <mxGeometry relative="1" as="geometry">
            <Array as="points">
              <mxPoint x="30" y="320" />
              <mxPoint x="30" y="1005" />
            </Array>
          </mxGeometry>
        </mxCell>
        <mxCell id="ZSEWPMTrWoGSLr4TfbLz-7" value="Is Iteration &lt;br&gt;&amp;gt; Max Interations" style="strokeWidth=2;html=1;shape=mxgraph.flowchart.decision;whiteSpace=wrap;fillColor=#d5e8d4;strokeColor=#82b366;" vertex="1" parent="1">
          <mxGeometry x="142.5" y="270" width="185" height="100" as="geometry" />
        </mxCell>
        <mxCell id="ZSEWPMTrWoGSLr4TfbLz-8" value="Exit program" style="rounded=1;whiteSpace=wrap;html=1;absoluteArcSize=1;arcSize=14;strokeWidth=2;" vertex="1" parent="1">
          <mxGeometry x="160" y="980" width="150" height="50" as="geometry" />
        </mxCell>
        <mxCell id="ZSEWPMTrWoGSLr4TfbLz-9" value="" style="edgeStyle=orthogonalEdgeStyle;rounded=0;orthogonalLoop=1;jettySize=auto;html=1;" edge="1" parent="1" source="ZSEWPMTrWoGSLr4TfbLz-10" target="ZSEWPMTrWoGSLr4TfbLz-12">
          <mxGeometry relative="1" as="geometry" />
        </mxCell>
        <mxCell id="ZSEWPMTrWoGSLr4TfbLz-51" style="edgeStyle=orthogonalEdgeStyle;rounded=0;orthogonalLoop=1;jettySize=auto;html=1;entryX=0.75;entryY=0;entryDx=0;entryDy=0;" edge="1" parent="1" source="ZSEWPMTrWoGSLr4TfbLz-10" target="ZSEWPMTrWoGSLr4TfbLz-52">
          <mxGeometry relative="1" as="geometry">
            <mxPoint x="420" y="620" as="targetPoint" />
          </mxGeometry>
        </mxCell>
        <mxCell id="ZSEWPMTrWoGSLr4TfbLz-10" value="&lt;div&gt;alter r1 r_act&lt;/div&gt;&lt;div&gt;&amp;nbsp; &amp;nbsp; op&lt;/div&gt;" style="rounded=1;whiteSpace=wrap;html=1;absoluteArcSize=1;arcSize=14;strokeWidth=2;fillColor=#dae8fc;strokeColor=#6c8ebf;" vertex="1" parent="1">
          <mxGeometry x="160" y="530" width="150" height="50" as="geometry" />
        </mxCell>
        <mxCell id="ZSEWPMTrWoGSLr4TfbLz-11" value="" style="edgeStyle=orthogonalEdgeStyle;rounded=0;orthogonalLoop=1;jettySize=auto;html=1;" edge="1" parent="1" source="ZSEWPMTrWoGSLr4TfbLz-12" target="ZSEWPMTrWoGSLr4TfbLz-17">
          <mxGeometry relative="1" as="geometry" />
        </mxCell>
        <mxCell id="ZSEWPMTrWoGSLr4TfbLz-12" value="Find overall best objective up till now" style="rounded=1;whiteSpace=wrap;html=1;absoluteArcSize=1;arcSize=14;strokeWidth=2;" vertex="1" parent="1">
          <mxGeometry x="160" y="610" width="150" height="50" as="geometry" />
        </mxCell>
        <mxCell id="ZSEWPMTrWoGSLr4TfbLz-13" value="" style="edgeStyle=orthogonalEdgeStyle;rounded=0;orthogonalLoop=1;jettySize=auto;html=1;" edge="1" parent="1" source="ZSEWPMTrWoGSLr4TfbLz-15" target="ZSEWPMTrWoGSLr4TfbLz-10">
          <mxGeometry relative="1" as="geometry" />
        </mxCell>
        <mxCell id="ZSEWPMTrWoGSLr4TfbLz-14" style="edgeStyle=orthogonalEdgeStyle;rounded=0;orthogonalLoop=1;jettySize=auto;html=1;entryX=1;entryY=0.5;entryDx=0;entryDy=0;" edge="1" parent="1" source="ZSEWPMTrWoGSLr4TfbLz-15" target="ZSEWPMTrWoGSLr4TfbLz-19">
          <mxGeometry relative="1" as="geometry">
            <Array as="points">
              <mxPoint x="390" y="450" />
              <mxPoint x="390" y="805" />
            </Array>
          </mxGeometry>
        </mxCell>
        <mxCell id="ZSEWPMTrWoGSLr4TfbLz-15" value="Current particle &amp;gt;&lt;br&gt;Total particles" style="strokeWidth=2;html=1;shape=mxgraph.flowchart.decision;whiteSpace=wrap;fillColor=#d5e8d4;strokeColor=#82b366;" vertex="1" parent="1">
          <mxGeometry x="142.5" y="400" width="185" height="100" as="geometry" />
        </mxCell>
        <mxCell id="ZSEWPMTrWoGSLr4TfbLz-16" style="edgeStyle=orthogonalEdgeStyle;rounded=0;orthogonalLoop=1;jettySize=auto;html=1;entryX=0;entryY=0.5;entryDx=0;entryDy=0;entryPerimeter=0;" edge="1" parent="1" source="ZSEWPMTrWoGSLr4TfbLz-17" target="ZSEWPMTrWoGSLr4TfbLz-15">
          <mxGeometry relative="1" as="geometry">
            <mxPoint x="70" y="440" as="targetPoint" />
            <Array as="points">
              <mxPoint x="90" y="720" />
              <mxPoint x="90" y="450" />
            </Array>
          </mxGeometry>
        </mxCell>
        <mxCell id="ZSEWPMTrWoGSLr4TfbLz-17" value="Goto next particle" style="rounded=1;whiteSpace=wrap;html=1;absoluteArcSize=1;arcSize=14;strokeWidth=2;" vertex="1" parent="1">
          <mxGeometry x="160" y="700" width="150" height="50" as="geometry" />
        </mxCell>
        <mxCell id="ZSEWPMTrWoGSLr4TfbLz-18" value="" style="edgeStyle=orthogonalEdgeStyle;rounded=0;orthogonalLoop=1;jettySize=auto;html=1;" edge="1" parent="1" source="ZSEWPMTrWoGSLr4TfbLz-19" target="ZSEWPMTrWoGSLr4TfbLz-20">
          <mxGeometry relative="1" as="geometry" />
        </mxCell>
        <mxCell id="ZSEWPMTrWoGSLr4TfbLz-19" value="Store current minima obtained from overall best objective" style="rounded=1;whiteSpace=wrap;html=1;absoluteArcSize=1;arcSize=14;strokeWidth=2;" vertex="1" parent="1">
          <mxGeometry x="160" y="780" width="150" height="50" as="geometry" />
        </mxCell>
        <mxCell id="ZSEWPMTrWoGSLr4TfbLz-20" value="Update personal best objective for all particles" style="rounded=1;whiteSpace=wrap;html=1;absoluteArcSize=1;arcSize=14;strokeWidth=2;" vertex="1" parent="1">
          <mxGeometry x="160" y="870" width="150" height="50" as="geometry" />
        </mxCell>
        <mxCell id="ZSEWPMTrWoGSLr4TfbLz-21" style="edgeStyle=orthogonalEdgeStyle;rounded=0;orthogonalLoop=1;jettySize=auto;html=1;entryX=0.5;entryY=1;entryDx=0;entryDy=0;exitX=0.5;exitY=0;exitDx=0;exitDy=0;exitPerimeter=0;" edge="1" parent="1" source="ZSEWPMTrWoGSLr4TfbLz-24" target="ZSEWPMTrWoGSLr4TfbLz-20">
          <mxGeometry relative="1" as="geometry" />
        </mxCell>
        <mxCell id="ZSEWPMTrWoGSLr4TfbLz-22" value="" style="edgeStyle=orthogonalEdgeStyle;rounded=0;orthogonalLoop=1;jettySize=auto;html=1;" edge="1" parent="1" source="ZSEWPMTrWoGSLr4TfbLz-24" target="ZSEWPMTrWoGSLr4TfbLz-26">
          <mxGeometry relative="1" as="geometry" />
        </mxCell>
        <mxCell id="ZSEWPMTrWoGSLr4TfbLz-23" style="edgeStyle=orthogonalEdgeStyle;rounded=0;orthogonalLoop=1;jettySize=auto;html=1;entryX=1;entryY=0.5;entryDx=0;entryDy=0;" edge="1" parent="1" source="ZSEWPMTrWoGSLr4TfbLz-24" target="ZSEWPMTrWoGSLr4TfbLz-32">
          <mxGeometry relative="1" as="geometry">
            <Array as="points">
              <mxPoint x="890" y="120" />
              <mxPoint x="890" y="525" />
            </Array>
          </mxGeometry>
        </mxCell>
        <mxCell id="ZSEWPMTrWoGSLr4TfbLz-24" value="Current particle &amp;gt;&lt;br&gt;Total particles" style="strokeWidth=2;html=1;shape=mxgraph.flowchart.decision;whiteSpace=wrap;" vertex="1" parent="1">
          <mxGeometry x="680" y="70" width="185" height="100" as="geometry" />
        </mxCell>
        <mxCell id="ZSEWPMTrWoGSLr4TfbLz-25" value="" style="edgeStyle=orthogonalEdgeStyle;rounded=0;orthogonalLoop=1;jettySize=auto;html=1;" edge="1" parent="1" source="ZSEWPMTrWoGSLr4TfbLz-26" target="ZSEWPMTrWoGSLr4TfbLz-28">
          <mxGeometry relative="1" as="geometry" />
        </mxCell>
        <mxCell id="ZSEWPMTrWoGSLr4TfbLz-26" value="Update particle velocity and move particle" style="rounded=1;whiteSpace=wrap;html=1;absoluteArcSize=1;arcSize=14;strokeWidth=2;" vertex="1" parent="1">
          <mxGeometry x="697.5" y="230" width="150" height="50" as="geometry" />
        </mxCell>
        <mxCell id="ZSEWPMTrWoGSLr4TfbLz-27" value="" style="edgeStyle=orthogonalEdgeStyle;rounded=0;orthogonalLoop=1;jettySize=auto;html=1;" edge="1" parent="1" source="ZSEWPMTrWoGSLr4TfbLz-28" target="ZSEWPMTrWoGSLr4TfbLz-30">
          <mxGeometry relative="1" as="geometry" />
        </mxCell>
        <mxCell id="ZSEWPMTrWoGSLr4TfbLz-28" value="If particle goes outside optimisation region, put it back in" style="rounded=1;whiteSpace=wrap;html=1;absoluteArcSize=1;arcSize=14;strokeWidth=2;fillColor=#fff2cc;strokeColor=#d6b656;" vertex="1" parent="1">
          <mxGeometry x="697.5" y="320" width="150" height="50" as="geometry" />
        </mxCell>
        <mxCell id="ZSEWPMTrWoGSLr4TfbLz-29" style="edgeStyle=orthogonalEdgeStyle;rounded=0;orthogonalLoop=1;jettySize=auto;html=1;entryX=0;entryY=0.5;entryDx=0;entryDy=0;entryPerimeter=0;" edge="1" parent="1" source="ZSEWPMTrWoGSLr4TfbLz-30" target="ZSEWPMTrWoGSLr4TfbLz-24">
          <mxGeometry relative="1" as="geometry">
            <Array as="points">
              <mxPoint x="630" y="440" />
              <mxPoint x="630" y="120" />
            </Array>
          </mxGeometry>
        </mxCell>
        <mxCell id="ZSEWPMTrWoGSLr4TfbLz-30" value="Goto next particle" style="rounded=1;whiteSpace=wrap;html=1;absoluteArcSize=1;arcSize=14;strokeWidth=2;" vertex="1" parent="1">
          <mxGeometry x="697.5" y="415" width="150" height="50" as="geometry" />
        </mxCell>
        <mxCell id="ZSEWPMTrWoGSLr4TfbLz-31" style="edgeStyle=orthogonalEdgeStyle;rounded=0;orthogonalLoop=1;jettySize=auto;html=1;entryX=1;entryY=0.5;entryDx=0;entryDy=0;entryPerimeter=0;" edge="1" parent="1" source="ZSEWPMTrWoGSLr4TfbLz-32" target="ZSEWPMTrWoGSLr4TfbLz-7">
          <mxGeometry relative="1" as="geometry" />
        </mxCell>
        <mxCell id="ZSEWPMTrWoGSLr4TfbLz-32" value="Goto next optimisation step" style="rounded=1;whiteSpace=wrap;html=1;absoluteArcSize=1;arcSize=14;strokeWidth=2;" vertex="1" parent="1">
          <mxGeometry x="697.5" y="500" width="150" height="50" as="geometry" />
        </mxCell>
        <mxCell id="ZSEWPMTrWoGSLr4TfbLz-49" value="Define Netlist" style="rounded=1;whiteSpace=wrap;html=1;absoluteArcSize=1;arcSize=14;strokeWidth=2;fillColor=#dae8fc;strokeColor=#6c8ebf;" vertex="1" parent="1">
          <mxGeometry x="160" y="10" width="150" height="50" as="geometry" />
        </mxCell>
        <mxCell id="ZSEWPMTrWoGSLr4TfbLz-53" style="edgeStyle=orthogonalEdgeStyle;rounded=0;orthogonalLoop=1;jettySize=auto;html=1;entryX=1;entryY=0.5;entryDx=0;entryDy=0;" edge="1" parent="1" source="ZSEWPMTrWoGSLr4TfbLz-52" target="ZSEWPMTrWoGSLr4TfbLz-12">
          <mxGeometry relative="1" as="geometry" />
        </mxCell>
        <mxCell id="ZSEWPMTrWoGSLr4TfbLz-52" value="Objective&lt;br&gt;(v(2)*i(vdd))" style="shape=parallelogram;html=1;strokeWidth=2;perimeter=parallelogramPerimeter;whiteSpace=wrap;rounded=1;arcSize=12;size=0.23;fillColor=#dae8fc;strokeColor=#6c8ebf;" vertex="1" parent="1">
          <mxGeometry x="410" y="600" width="100" height="40" as="geometry" />
        </mxCell>
      </root>
    </mxGraphModel>
  </diagram>
</mxfile>
